static_grf.mot
version=1
nRows=12
nColumns 19
inDegrees=yes
endheader
time	1_ground_force_vx	1_ground_force_vy	1_ground_force_vz	1_ground_force_px	1_ground_force_py	1_ground_force_pz	1_ground_torque_x	1_ground_torque_y	1_ground_torque_z	2_ground_force_vx	2_ground_force_vy	2_ground_force_vz	2_ground_force_px	2_ground_force_py	2_ground_force_pz	2_ground_torque_x	2_ground_torque_y	2_ground_torque_z
            0.453500	            1.864083	          256.622666	          -23.208600	           -0.259459	            0.006400	           -0.447717	            0.009558	            1.315776	           -0.118997	           -3.366672	          221.800379	           25.758603	           -0.219356	            0.005879	           -0.750165	            0.010343	           -0.681412	           -0.079135
            0.454000	            1.772819	          256.802097	          -23.024176	           -0.259184	            0.006400	           -0.447628	            0.008754	            1.268050	           -0.113690	           -3.600380	          221.616396	           25.476477	           -0.219394	            0.005879	           -0.750088	            0.012358	           -0.760703	           -0.087449
            0.454500	            1.726994	          256.081222	          -23.073010	           -0.259275	            0.006400	           -0.447813	            0.008330	            1.235165	           -0.111289	           -3.602395	          222.169016	           25.431520	           -0.219636	            0.005879	           -0.750469	            0.011079	           -0.683301	           -0.078217
            0.455000	            1.405929	          256.982519	          -23.068349	           -0.259099	            0.006398	           -0.447290	            0.006644	            1.214490	           -0.109020	           -3.596290	          220.510685	           25.707175	           -0.219595	            0.005875	           -0.749245	            0.011938	           -0.731969	           -0.085333
            0.455500	            1.543134	          256.262269	          -23.255206	           -0.259289	            0.006402	           -0.448225	            0.007371	            1.224021	           -0.111077	           -3.503981	          220.879807	           25.567665	           -0.219131	            0.005878	           -0.749730	            0.010855	           -0.684253	           -0.079205
            0.456000	            1.726212	          256.623229	          -23.345827	           -0.259485	            0.006402	           -0.448109	            0.008768	            1.303401	           -0.118575	           -3.178005	          221.433276	           25.616425	           -0.219061	            0.005880	           -0.750027	            0.010327	           -0.719579	           -0.083244
            0.456500	            1.634739	          256.082187	          -23.302062	           -0.259055	            0.006402	           -0.448146	            0.008074	            1.264826	           -0.115092	           -3.459166	          221.432763	           25.475760	           -0.219588	            0.005877	           -0.749940	            0.010807	           -0.691797	           -0.079591
            0.457000	            1.589073	          256.982947	          -23.160516	           -0.259426	            0.006398	           -0.447300	            0.007620	            1.232334	           -0.111064	           -3.503837	          220.878635	           25.896162	           -0.219119	            0.005879	           -0.749814	            0.011085	           -0.698757	           -0.081923
            0.457500	            1.589106	          256.802651	          -23.161289	           -0.259216	            0.006399	           -0.447509	            0.007768	            1.255325	           -0.113219	           -3.412898	          221.616403	           25.664110	           -0.219399	            0.005878	           -0.749838	            0.011474	           -0.745065	           -0.086282
            0.458000	            1.588602	          256.443103	          -23.392114	           -0.259250	            0.006402	           -0.448110	            0.007767	            1.253774	           -0.114366	           -3.362705	          220.695671	           25.707732	           -0.219947	            0.005874	           -0.749404	            0.011162	           -0.732574	           -0.085334
            0.458500	            1.863418	          255.902949	          -23.532684	           -0.259518	            0.006403	           -0.448460	            0.009730	            1.336243	           -0.122880	           -3.270978	          221.248295	           25.756592	           -0.220211	            0.005875	           -0.750038	            0.011478	           -0.776400	           -0.090384
            0.459000	            1.726703	          255.180680	          -23.260299	           -0.259515	            0.006402	           -0.448304	            0.008248	            1.218887	           -0.111104	           -3.362684	          220.695504	           25.754661	           -0.219346	            0.005879	           -0.750085	            0.011239	           -0.737649	           -0.086082
